<svg viewBox="0 0 16 16" xmlns="http://www.w3.org/2000/svg" xmlns:xlink="http://www.w3.org/1999/xlink" width="16.000000" height="16.000000" fill="none">
	<rect id="copyright" width="16.000000" height="16.000000" x="0.000000" y="0.000000" fill="rgb(255,255,255)" fill-opacity="0" />
	<path id="Vector" d="M7.99998 14.6663C4.31808 14.6663 1.33331 11.6816 1.33331 7.99967C1.33331 4.31778 4.31808 1.33301 7.99998 1.33301C11.6819 1.33301 14.6666 4.31778 14.6666 7.99967C14.6666 11.6816 11.6819 14.6663 7.99998 14.6663Z" stroke="rgb(133.345,142.362,138.086)" stroke-linecap="round" stroke-linejoin="round" stroke-width="1.000000" />
	<path id="Vector" d="M9.88669 9.88634C9.51363 10.259 9.03847 10.5127 8.52127 10.6153C8.00406 10.718 7.46804 10.665 6.98094 10.4631C6.49384 10.2612 6.07754 9.91935 5.78466 9.48089C5.49177 9.04242 5.33545 8.52697 5.33545 7.99968C5.33545 7.47239 5.49177 6.95693 5.78466 6.51846C6.07754 6.08 6.49384 5.7382 6.98094 5.53628C7.46804 5.33436 8.00406 5.28138 8.52127 5.38403C9.03847 5.48668 9.51363 5.74037 9.88669 6.11301" fill-rule="nonzero" stroke="rgb(133.345,142.362,138.086)" stroke-linecap="round" stroke-linejoin="round" stroke-width="1.000000" />
</svg>
